<svg xmlns="http://www.w3.org/2000/svg"  viewBox="0 0 100 100" width="200px" height="200px"><path fill="#f9e65c" d="M50,13c-19.33,0-35,15.67-35,35v1c0,3.314,2.686,6,6,6c1.539,0,2.938-0.584,4-1.537V87h50V53.463 C76.062,54.416,77.461,55,79,55c3.314,0,6-2.686,6-6v-1C85,28.67,69.33,13,50,13z"/><path fill="#eddc67" d="M53.468,47.151c-1.058,0.223-2.226,0.349-3.46,0.349c-1.24,0-2.414-0.128-3.476-0.353 c-0.041,1.195-0.198,2.6-0.489,4.025C46.942,51.628,48.204,52,50,52c1.796,0,3.058-0.372,3.957-0.828 C53.667,49.748,53.509,48.345,53.468,47.151L53.468,47.151z"/><circle cx="34.994" cy="35.006" r="9.494" fill="#444445"/><circle cx="34.482" cy="34.482" r="5.982" fill="#fff"/><circle cx="64.994" cy="35.006" r="9.494" fill="#444445"/><circle cx="65.507" cy="34.482" r="5.982" fill="#fff"/><path fill="#444445" d="M58.5,43.5c0-2.209-3.802-4-8.492-4s-8.492,1.791-8.492,4s3.802,4,8.492,4S58.5,45.709,58.5,43.5z"/><path fill="#f9e65c" d="M25,76.374l-5.481-4.89L25,66.64v-8.006L13.014,69.225c-0.643,0.567-1.012,1.384-1.014,2.241 s0.363,1.675,1.003,2.245L25,84.413V76.374z"/><path fill="#f9e65c" d="M75,76.374l5.481-4.89L75,66.64v-8.006l11.986,10.591c0.643,0.567,1.012,1.384,1.014,2.241 s-0.363,1.675-1.003,2.245L75,84.413V76.374z"/><path fill="#fef6aa" d="M50,34.5c-19,0-17.238,15.745-15.513,20.31c1.052,2.767,3.241,4.69,5.171,4.69 c4.864,0,6.715-7.735,6.874-12.353c-2.955-0.626-5.016-2.022-5.016-3.647c0-2.209,3.802-4,8.492-4c4.69,0,8.492,1.791,8.492,4 c0,1.628-2.068,3.026-5.032,3.651c0.16,4.619,2.011,12.349,6.874,12.349c1.93,0,4.119-1.923,5.171-4.69 C67.238,50.245,69,34.5,50,34.5z"/><g><path fill="#1f212b" d="M25,88c-0.553,0-1-0.447-1-1V53.481c0-0.553,0.447-1,1-1s1,0.447,1,1V87C26,87.553,25.553,88,25,88z"/><path fill="#1f212b" d="M50.008,48c-5.042,0-8.991-1.977-8.991-4.5s3.949-4.5,8.991-4.5S59,40.977,59,43.5 S55.05,48,50.008,48z M50.008,40c-4.78,0-7.991,1.81-7.991,3.5s3.211,3.5,7.991,3.5S58,45.19,58,43.5S54.788,40,50.008,40z"/><path fill="#1f212b" d="M34.482,40.964c-3.574,0-6.482-2.907-6.482-6.481S30.908,28,34.482,28s6.481,2.908,6.481,6.482 c0,0.782-0.145,1.557-0.429,2.302l-0.066,0.174l-0.163,0.088c-1.658,0.892-3.012,2.081-4.025,3.535l-0.109,0.156l-0.185,0.044 C35.479,40.902,34.973,40.964,34.482,40.964z M34.482,29C31.459,29,29,31.459,29,34.482c0,3.377,3.046,6.093,6.573,5.366 c1.056-1.461,2.43-2.668,4.09-3.592c0.199-0.577,0.301-1.174,0.301-1.774C39.964,31.459,37.505,29,34.482,29z"/><path fill="#1f212b" d="M34.377,44.989l-0.429-0.045C28.847,44.414,25,40.141,25,35.006c0-5.511,4.483-9.994,9.994-9.994 s9.994,4.483,9.994,9.994v0.404l-0.397,0.12c-5.464,1.163-8.864,4.205-10.106,9.041L34.377,44.989z M34.994,26.012 c-4.959,0-8.994,4.035-8.994,8.994c0,4.479,3.252,8.229,7.632,8.891c1.002-3.461,3.626-7.685,10.351-9.255 C43.801,29.862,39.839,26.012,34.994,26.012z"/><path fill="#1f212b" d="M65.507,40.964c-0.487,0-0.988-0.06-1.49-0.179l-0.186-0.044l-0.109-0.157 c-1.016-1.459-2.375-2.652-4.041-3.546l-0.165-0.088l-0.066-0.175c-0.282-0.743-0.425-1.515-0.425-2.293 c0-3.574,2.908-6.482,6.482-6.482s6.481,2.908,6.481,6.482S69.081,40.964,65.507,40.964z M64.428,39.853 c3.506,0.714,6.561-1.996,6.561-5.37c0-3.023-2.459-5.482-5.481-5.482c-3.023,0-5.482,2.459-5.482,5.482 c0,0.598,0.101,1.191,0.298,1.767C61.991,37.174,63.371,38.385,64.428,39.853z"/><path fill="#1f212b" d="M65.623,44.987l-0.107-0.417c-1.245-4.84-4.649-7.882-10.117-9.042l-0.396-0.084v-0.405 C55,29.495,59.483,25.012,64.994,25.012s9.994,4.483,9.994,9.994c0,5.129-3.842,9.4-8.936,9.937L65.623,44.987z M56.008,34.64 c6.729,1.567,9.356,5.792,10.359,9.255c4.374-0.666,7.621-4.415,7.621-8.889c0-4.959-4.035-8.994-8.994-8.994 C60.157,26.012,56.2,29.85,56.008,34.64z"/><path fill="#1f212b" d="M26,86.646L12.337,74.457c-0.852-0.76-1.34-1.851-1.337-2.993c0.003-1.144,0.495-2.232,1.352-2.989 L26,56.416v10.676l-4.976,4.396L26,75.925V86.646z M24,60.852l-10.324,9.122c-0.429,0.379-0.675,0.923-0.676,1.494 s0.242,1.117,0.668,1.497L24,82.181v-5.359l-5.987-5.342L24,66.189V60.852z"/><path fill="#1f212b" d="M75,88c-0.553,0-1-0.447-1-1V53.481c0-0.553,0.447-1,1-1s1,0.447,1,1V87C76,87.553,75.553,88,75,88z"/><path fill="#1f212b" d="M74,86.646v-10.72l4.976-4.438L74,67.092V56.416l13.648,12.06c0.856,0.756,1.349,1.845,1.352,2.988 c0.003,1.143-0.485,2.233-1.338,2.993L74,86.646z M76,76.822v5.358l10.331-9.216c0.427-0.38,0.67-0.926,0.669-1.497 s-0.247-1.115-0.676-1.493L76,60.852v5.338l5.987,5.29L76,76.822z"/><path fill="#1f212b" d="M79,56c-3.859,0-7-3.141-7-7v-2c0-0.553,0.447-1,1-1s1,0.447,1,1v2c0,2.757,2.243,5,5,5s5-2.243,5-5 v-1c0-18.748-15.252-34-34-34S16,29.252,16,48v1c0,2.757,2.243,5,5,5s5-2.243,5-5v-2c0-0.553,0.447-1,1-1s1,0.447,1,1v2 c0,3.859-3.141,7-7,7s-7-3.141-7-7v-1c0-19.851,16.149-36,36-36s36,16.149,36,36v1C86,52.859,82.859,56,79,56z"/><path fill="#1f212b" d="M63.5,21.16c-0.075,0-0.15-0.017-0.222-0.052c-0.324-0.16-0.653-0.313-0.983-0.462 c-0.252-0.113-0.364-0.41-0.251-0.661c0.114-0.253,0.412-0.364,0.661-0.251c0.342,0.154,0.681,0.312,1.017,0.478 c0.247,0.122,0.349,0.422,0.227,0.67C63.861,21.058,63.684,21.16,63.5,21.16z"/><path fill="#1f212b" d="M36.5,21.16c-0.184,0-0.36-0.102-0.448-0.278c-0.122-0.247-0.021-0.547,0.227-0.67 C40.576,18.081,45.192,17,50,17c0.778,0,1.609,0.037,2.541,0.113c0.275,0.022,0.479,0.264,0.457,0.539s-0.244,0.477-0.539,0.457 C51.556,18.036,50.751,18,50,18c-4.652,0-9.119,1.046-13.278,3.108C36.65,21.144,36.575,21.16,36.5,21.16z"/><path fill="#1f212b" d="M60.5,19.863c-0.058,0-0.115-0.01-0.173-0.03c-0.948-0.35-1.941-0.656-2.95-0.913 c-0.268-0.067-0.43-0.34-0.361-0.607c0.067-0.268,0.336-0.435,0.607-0.361c1.042,0.265,2.068,0.582,3.05,0.942 c0.259,0.096,0.392,0.383,0.297,0.643C60.895,19.738,60.703,19.863,60.5,19.863z"/><path fill="#1f212b" d="M53.737,49.946C53.235,50.382,52.153,51,50,51c-2.155,0-3.235-0.62-3.737-1.055 c-0.107,0.7-0.246,1.418-0.421,2.133C46.748,52.579,48.077,53,50,53c1.922,0,3.252-0.421,4.158-0.922 C53.983,51.364,53.844,50.646,53.737,49.946z"/><path fill="#1f212b" d="M60.342,60c-5.084,0-7.195-7.674-7.374-12.832l-0.015-0.42l0.412-0.087 C56.138,46.077,58,44.807,58,43.5c0-1.69-3.212-3.5-7.992-3.5s-7.992,1.81-7.992,3.5c0,1.303,1.856,2.572,4.619,3.157l0.41,0.087 l-0.014,0.42C46.854,52.323,44.744,60,39.657,60c-2.163,0-4.534-2.108-5.639-5.013c-0.509-1.351-1.044-3.764-1.019-6.492 C33.051,43.082,35.327,34,50,34s16.949,9.082,17,14.495c0.025,2.73-0.51,5.144-1.02,6.491C64.876,57.892,62.505,60,60.342,60z M53.986,47.546C54.239,52.145,56.126,59,60.342,59c1.735,0,3.757-1.878,4.703-4.368c0.478-1.262,0.979-3.535,0.955-6.127 C65.952,43.461,63.811,35,50,35s-15.952,8.461-16,13.505c-0.024,2.59,0.477,4.864,0.954,6.128C35.9,57.122,37.922,59,39.657,59 c4.22,0,6.104-6.858,6.355-11.458c-3.094-0.747-4.997-2.276-4.997-4.042c0-2.523,3.95-4.5,8.992-4.5S59,40.977,59,43.5 C59,45.271,57.091,46.801,53.986,47.546z"/></g></svg>